<svg width="102" height="57" viewBox="0 0 102 57" fill="none" xmlns="http://www.w3.org/2000/svg">
<path d="M22.498 43.832V56H15.868V43.832H0.423993V37.124L8.14599 1.4H14.464L7.05399 38.138H15.868L16.414 20.354H22.498V38.138H27.958V43.832H22.498ZM57.2647 28.466C57.2647 24.15 57.1607 20.588 56.9527 17.78C56.7967 14.972 56.4587 12.736 55.9387 11.072C55.4187 9.408 54.6907 8.238 53.7547 7.562C52.8187 6.886 51.5707 6.548 50.0107 6.548C48.4507 6.548 47.2027 6.886 46.2667 7.562C45.3307 8.238 44.6027 9.408 44.0827 11.072C43.5627 12.736 43.1987 14.972 42.9907 17.78C42.8347 20.588 42.7567 24.15 42.7567 28.466C42.7567 32.678 42.8347 36.214 42.9907 39.074C43.1987 41.882 43.5367 44.17 44.0047 45.938C44.5247 47.706 45.2527 48.98 46.1887 49.76C47.1767 50.488 48.4507 50.852 50.0107 50.852C51.5707 50.852 52.8187 50.488 53.7547 49.76C54.7427 48.98 55.4707 47.706 55.9387 45.938C56.4587 44.17 56.7967 41.882 56.9527 39.074C57.1607 36.214 57.2647 32.678 57.2647 28.466ZM63.8947 28.076C63.8947 32.86 63.7387 37.046 63.4267 40.634C63.1147 44.17 62.4647 47.134 61.4767 49.526C60.4887 51.866 59.0847 53.634 57.2647 54.83C55.4447 55.974 53.0267 56.546 50.0107 56.546C46.9947 56.546 44.5767 55.974 42.7567 54.83C40.9367 53.634 39.5327 51.866 38.5447 49.526C37.5567 47.134 36.9067 44.17 36.5947 40.634C36.2827 37.046 36.1267 32.86 36.1267 28.076C36.1267 23.5 36.2827 19.522 36.5947 16.142C36.9067 12.71 37.5567 9.876 38.5447 7.64C39.5327 5.352 40.9367 3.662 42.7567 2.57C44.5767 1.426 46.9947 0.853999 50.0107 0.853999C53.0787 0.853999 55.5227 1.426 57.3427 2.57C59.1627 3.662 60.5407 5.352 61.4767 7.64C62.4647 9.876 63.1147 12.71 63.4267 16.142C63.7387 19.522 63.8947 23.5 63.8947 28.076ZM95.7753 43.832V56H89.1453V43.832H73.7013V37.124L81.4233 1.4H87.7413L80.3313 38.138H89.1453L89.6913 20.354H95.7753V38.138H101.235V43.832H95.7753Z" fill="white"/>
<path d="M22.498 43.832V42.832H21.498V43.832H22.498ZM22.498 56V57H23.498V56H22.498ZM15.868 56H14.868V57H15.868V56ZM15.868 43.832H16.868V42.832H15.868V43.832ZM0.423993 43.832H-0.576007V44.832H0.423993V43.832ZM0.423993 37.124L-0.553433 36.9127L-0.576007 37.0172V37.124H0.423993ZM8.14599 1.4V0.399996H7.33906L7.16857 1.18872L8.14599 1.4ZM14.464 1.4L15.4443 1.59771L15.6858 0.399996H14.464V1.4ZM7.05399 38.138L6.07373 37.9403L5.83216 39.138H7.05399V38.138ZM15.868 38.138V39.138H16.8378L16.8675 38.1687L15.868 38.138ZM16.414 20.354V19.354H15.4442L15.4145 20.3233L16.414 20.354ZM22.498 20.354H23.498V19.354H22.498V20.354ZM22.498 38.138H21.498V39.138H22.498V38.138ZM27.958 38.138H28.958V37.138H27.958V38.138ZM27.958 43.832V44.832H28.958V43.832H27.958ZM21.498 43.832V56H23.498V43.832H21.498ZM22.498 55H15.868V57H22.498V55ZM16.868 56V43.832H14.868V56H16.868ZM15.868 42.832H0.423993V44.832H15.868V42.832ZM1.42399 43.832V37.124H-0.576007V43.832H1.42399ZM1.40142 37.3353L9.12342 1.61127L7.16857 1.18872L-0.553433 36.9127L1.40142 37.3353ZM8.14599 2.4H14.464V0.399996H8.14599V2.4ZM13.4837 1.20228L6.07373 37.9403L8.03425 38.3357L15.4443 1.59771L13.4837 1.20228ZM7.05399 39.138H15.868V37.138H7.05399V39.138ZM16.8675 38.1687L17.4135 20.3847L15.4145 20.3233L14.8685 38.1073L16.8675 38.1687ZM16.414 21.354H22.498V19.354H16.414V21.354ZM21.498 20.354V38.138H23.498V20.354H21.498ZM22.498 39.138H27.958V37.138H22.498V39.138ZM26.958 38.138V43.832H28.958V38.138H26.958ZM27.958 42.832H22.498V44.832H27.958V42.832ZM56.9527 17.78L55.9542 17.8355L55.9547 17.8447L55.9554 17.8539L56.9527 17.78ZM53.7547 7.562L54.3402 6.75132L54.3402 6.75132L53.7547 7.562ZM46.2667 7.562L45.6812 6.75132L45.6812 6.75132L46.2667 7.562ZM42.9907 17.78L41.9934 17.7061L41.9927 17.7153L41.9922 17.7245L42.9907 17.78ZM42.9907 39.074L41.9921 39.1285L41.9927 39.1382L41.9934 39.1479L42.9907 39.074ZM44.0047 45.938L43.038 46.1939L43.0415 46.2071L43.0453 46.2202L44.0047 45.938ZM46.1887 49.76L45.5485 50.5282L45.5714 50.5473L45.5955 50.5651L46.1887 49.76ZM53.7547 49.76L54.3686 50.5494L54.3743 50.5449L53.7547 49.76ZM55.9387 45.938L54.9793 45.6558L54.9755 45.6689L54.972 45.6821L55.9387 45.938ZM56.9527 39.074L55.9553 39.0015L55.9547 39.01L55.9542 39.0185L56.9527 39.074ZM63.4267 40.634L64.4228 40.7219L64.4229 40.7206L63.4267 40.634ZM61.4767 49.526L62.3979 49.915L62.4009 49.9078L61.4767 49.526ZM57.2647 54.83L57.7968 55.6766L57.8054 55.6713L57.8138 55.6657L57.2647 54.83ZM42.7567 54.83L42.2075 55.6657L42.2159 55.6713L42.2245 55.6766L42.7567 54.83ZM38.5447 49.526L37.6204 49.9078L37.6234 49.915L38.5447 49.526ZM36.5947 40.634L35.5984 40.7206L35.5985 40.7219L36.5947 40.634ZM36.5947 16.142L37.5904 16.2339L37.5906 16.2325L36.5947 16.142ZM38.5447 7.64L39.4594 8.04418L39.4627 8.03644L38.5447 7.64ZM42.7567 2.57L43.2712 3.42749L43.2801 3.42215L43.2888 3.41663L42.7567 2.57ZM57.3427 2.57L56.8105 3.41663L56.8193 3.42215L56.8282 3.42749L57.3427 2.57ZM61.4767 7.64L60.5511 8.01863L60.5564 8.03147L60.562 8.04416L61.4767 7.64ZM63.4267 16.142L62.4308 16.2325L62.4309 16.2339L63.4267 16.142ZM58.2647 28.466C58.2647 24.1368 58.1604 20.548 57.9499 17.7061L55.9554 17.8539C56.1609 20.628 56.2647 24.1632 56.2647 28.466H58.2647ZM57.9511 17.7245C57.793 14.8778 57.4481 12.5495 56.8931 10.7737L54.9842 11.3703C55.4692 12.9225 55.8004 15.0662 55.9542 17.8355L57.9511 17.7245ZM56.8931 10.7737C56.3399 9.00319 55.5203 7.60365 54.3402 6.75132L53.1692 8.37268C53.861 8.87235 54.4975 9.8128 54.9842 11.3703L56.8931 10.7737ZM54.3402 6.75132C53.183 5.91562 51.7082 5.548 50.0107 5.548V7.548C51.4331 7.548 52.4543 7.85638 53.1692 8.37268L54.3402 6.75132ZM50.0107 5.548C48.3131 5.548 46.8383 5.91562 45.6812 6.75132L46.8522 8.37268C47.567 7.85638 48.5882 7.548 50.0107 7.548V5.548ZM45.6812 6.75132C44.501 7.60365 43.6815 9.00319 43.1282 10.7737L45.0371 11.3703C45.5239 9.8128 46.1603 8.87235 46.8522 8.37267L45.6812 6.75132ZM43.1282 10.7737C42.5758 12.5412 42.204 14.8624 41.9934 17.7061L43.9879 17.8539C44.1933 15.0816 44.5495 12.9308 45.0371 11.3703L43.1282 10.7737ZM41.9922 17.7245C41.8348 20.558 41.7567 24.1401 41.7567 28.466H43.7567C43.7567 24.1599 43.8345 20.618 43.9891 17.8355L41.9922 17.7245ZM41.7567 28.466C41.7567 32.6886 41.8348 36.2441 41.9921 39.1285L43.9892 39.0195C43.8345 36.1839 43.7567 32.6674 43.7567 28.466H41.7567ZM41.9934 39.1479C42.2038 41.9883 42.5482 44.3435 43.038 46.1939L44.9714 45.6821C44.5252 43.9965 44.1935 41.7757 43.9879 39.0001L41.9934 39.1479ZM43.0453 46.2202C43.5944 48.0871 44.4008 49.5718 45.5485 50.5282L46.8288 48.9918C46.1045 48.3882 45.4549 47.3249 44.964 45.6558L43.0453 46.2202ZM45.5955 50.5651C46.797 51.4504 48.2955 51.852 50.0107 51.852V49.852C48.6058 49.852 47.5564 49.5256 46.7819 48.9549L45.5955 50.5651ZM50.0107 51.852C51.7227 51.852 53.2086 51.4515 54.3686 50.5494L53.1407 48.9706C52.4287 49.5245 51.4186 49.852 50.0107 49.852V51.852ZM54.3743 50.5449C55.5937 49.5822 56.4061 48.0799 56.9054 46.1939L54.972 45.6821C54.5352 47.3321 53.8916 48.3778 53.135 48.9751L54.3743 50.5449ZM56.898 46.2202C57.4479 44.3505 57.7928 41.9786 57.9511 39.1295L55.9542 39.0185C55.8005 41.7854 55.4694 43.9895 54.9793 45.6558L56.898 46.2202ZM57.95 39.1465C58.1604 36.2541 58.2647 32.6921 58.2647 28.466H56.2647C56.2647 32.6639 56.1609 36.1739 55.9553 39.0015L57.95 39.1465ZM62.8947 28.076C62.8947 32.8398 62.7393 36.9957 62.4304 40.5474L64.4229 40.7206C64.7381 37.0963 64.8947 32.8802 64.8947 28.076H62.8947ZM62.4305 40.5461C62.1244 44.0158 61.4903 46.8735 60.5524 49.1442L62.4009 49.9078C63.439 47.3945 64.1049 44.3242 64.4228 40.7219L62.4305 40.5461ZM60.5554 49.137C59.6313 51.3256 58.3438 52.9242 56.7155 53.9943L57.8138 55.6657C59.8255 54.3438 61.346 52.4064 62.3979 49.915L60.5554 49.137ZM56.7325 53.9834C55.1239 54.9945 52.911 55.546 50.0107 55.546V57.546C53.1424 57.546 55.7655 56.9535 57.7968 55.6766L56.7325 53.9834ZM50.0107 55.546C47.1104 55.546 44.8975 54.9945 43.2888 53.9834L42.2245 55.6766C44.2559 56.9535 46.879 57.546 50.0107 57.546V55.546ZM43.3058 53.9943C41.6775 52.9242 40.39 51.3256 39.4659 49.137L37.6234 49.915C38.6753 52.4064 40.1958 54.3438 42.2075 55.6657L43.3058 53.9943ZM39.4689 49.1442C38.531 46.8735 37.8969 44.0158 37.5908 40.5461L35.5985 40.7219C35.9164 44.3242 36.5823 47.3945 37.6204 49.9078L39.4689 49.1442ZM37.5909 40.5474C37.2821 36.9957 37.1267 32.8398 37.1267 28.076H35.1267C35.1267 32.8802 35.2833 37.0963 35.5984 40.7206L37.5909 40.5474ZM37.1267 28.076C37.1267 23.5209 37.282 19.575 37.5904 16.2339L35.5989 16.0501C35.2833 19.469 35.1267 23.4791 35.1267 28.076H37.1267ZM37.5906 16.2325C37.8964 12.8681 38.5292 10.1492 39.4594 8.04416L37.63 7.23584C36.5841 9.60282 35.9169 12.5519 35.5988 16.0515L37.5906 16.2325ZM39.4627 8.03644C40.3827 5.90609 41.6603 4.39398 43.2712 3.42749L42.2422 1.7125C40.213 2.93001 38.6827 4.79791 37.6266 7.24356L39.4627 8.03644ZM43.2888 3.41663C44.8975 2.4055 47.1104 1.854 50.0107 1.854V-0.146001C46.879 -0.146001 44.2559 0.446498 42.2245 1.72336L43.2888 3.41663ZM50.0107 1.854C52.9668 1.854 55.2042 2.40695 56.8105 3.41663L57.8748 1.72336C55.8411 0.445041 53.1905 -0.146001 50.0107 -0.146001V1.854ZM56.8282 3.42749C58.4337 4.39083 59.6829 5.89629 60.5511 8.01863L62.4022 7.26137C61.3984 4.80771 59.8916 2.93316 57.8572 1.7125L56.8282 3.42749ZM60.562 8.04416C61.4921 10.1492 62.1249 12.8681 62.4308 16.2325L64.4226 16.0515C64.1044 12.5519 63.4372 9.60282 62.3914 7.23584L60.562 8.04416ZM62.4309 16.2339C62.7393 19.575 62.8947 23.5209 62.8947 28.076H64.8947C64.8947 23.4791 64.738 19.469 64.4224 16.0501L62.4309 16.2339ZM95.7753 43.832V42.832H94.7753V43.832H95.7753ZM95.7753 56V57H96.7753V56H95.7753ZM89.1453 56H88.1453V57H89.1453V56ZM89.1453 43.832H90.1453V42.832H89.1453V43.832ZM73.7013 43.832H72.7013V44.832H73.7013V43.832ZM73.7013 37.124L72.7239 36.9127L72.7013 37.0172V37.124H73.7013ZM81.4233 1.4V0.399996H80.6164L80.4459 1.18872L81.4233 1.4ZM87.7413 1.4L88.7216 1.59771L88.9632 0.399996H87.7413V1.4ZM80.3313 38.138L79.3511 37.9403L79.1095 39.138H80.3313V38.138ZM89.1453 38.138V39.138H90.1151L90.1449 38.1687L89.1453 38.138ZM89.6913 20.354V19.354H88.7216L88.6918 20.3233L89.6913 20.354ZM95.7753 20.354H96.7753V19.354H95.7753V20.354ZM95.7753 38.138H94.7753V39.138H95.7753V38.138ZM101.235 38.138H102.235V37.138H101.235V38.138ZM101.235 43.832V44.832H102.235V43.832H101.235ZM94.7753 43.832V56H96.7753V43.832H94.7753ZM95.7753 55H89.1453V57H95.7753V55ZM90.1453 56V43.832H88.1453V56H90.1453ZM89.1453 42.832H73.7013V44.832H89.1453V42.832ZM74.7013 43.832V37.124H72.7013V43.832H74.7013ZM74.6788 37.3353L82.4008 1.61127L80.4459 1.18872L72.7239 36.9127L74.6788 37.3353ZM81.4233 2.4H87.7413V0.399996H81.4233V2.4ZM86.7611 1.20228L79.3511 37.9403L81.3116 38.3357L88.7216 1.59771L86.7611 1.20228ZM80.3313 39.138H89.1453V37.138H80.3313V39.138ZM90.1449 38.1687L90.6909 20.3847L88.6918 20.3233L88.1458 38.1073L90.1449 38.1687ZM89.6913 21.354H95.7753V19.354H89.6913V21.354ZM94.7753 20.354V38.138H96.7753V20.354H94.7753ZM95.7753 39.138H101.235V37.138H95.7753V39.138ZM100.235 38.138V43.832H102.235V38.138H100.235ZM101.235 42.832H95.7753V44.832H101.235V42.832Z" fill="#226699"/>
</svg>
