<svg width="1056" height="241" viewBox="0 0 1056 241" fill="none" xmlns="http://www.w3.org/2000/svg">
<path d="M61.4491 40H50V132H61.4491V40Z" fill="white"/>
<path d="M72.8984 40H67.1738V132H72.8984V40Z" fill="white"/>
<path d="M90.0717 40H84.3472V132H90.0717V40Z" fill="white"/>
<path d="M118.695 40H112.97V132H118.695V40Z" fill="white"/>
<path d="M135.868 40H130.144V132H135.868V40Z" fill="white"/>
<path d="M170.216 40H158.767V132H170.216V40Z" fill="white"/>
<path d="M187.389 40H175.94V132H187.389V40Z" fill="white"/>
<path d="M204.563 40H198.838V132H204.563V40Z" fill="white"/>
<path d="M216.012 40H210.288V132H216.012V40Z" fill="white"/>
<path d="M244.635 40H238.91V132H244.635V40Z" fill="white"/>
<path d="M284.707 40H261.809V132H284.707V40Z" fill="white"/>
<path d="M296.156 40H290.431V132H296.156V40Z" fill="white"/>
<path d="M307.605 40H301.88V132H307.605V40Z" fill="white"/>
<path d="M330.503 40H319.054V132H330.503V40Z" fill="white"/>
<path d="M341.952 40H336.228V132H341.952V40Z" fill="white"/>
<path d="M370.575 40H364.851V132H370.575V40Z" fill="white"/>
<path d="M393.473 40H382.024V132H393.473V40Z" fill="white"/>
<path d="M422.096 40H404.922V132H422.096V40Z" fill="white"/>
<path d="M433.545 40H427.82V132H433.545V40Z" fill="white"/>
<path d="M467.892 40H444.994V132H467.892V40Z" fill="white"/>
<path d="M485.066 40H479.341V132H485.066V40Z" fill="white"/>
<path d="M496.515 40H490.791V132H496.515V40Z" fill="white"/>
<path d="M513.689 40H502.24V132H513.689V40Z" fill="white"/>
<path d="M530.862 40H525.138V132H530.862V40Z" fill="white"/>
<path d="M559.485 40H553.76V132H559.485V40Z" fill="white"/>
<path d="M582.383 40H570.934V132H582.383V40Z" fill="white"/>
<path d="M605.282 40H588.108V132H605.282V40Z" fill="white"/>
<path d="M628.18 40H616.73V132H628.18V40Z" fill="white"/>
<path d="M645.353 40H633.904V132H645.353V40Z" fill="white"/>
<path d="M673.976 40H651.078V132H673.976V40Z" fill="white"/>
<path d="M685.425 40H679.701V132H685.425V40Z" fill="white"/>
<path d="M708.323 40H696.874V132H708.323V40Z" fill="white"/>
<path d="M736.946 40H719.772V132H736.946V40Z" fill="white"/>
<path d="M765.569 40H742.671V132H765.569V40Z" fill="white"/>
<path d="M788.467 40H771.293V132H788.467V40Z" fill="white"/>
<path d="M799.916 40H794.191V132H799.916V40Z" fill="white"/>
<path d="M811.365 40H805.641V132H811.365V40Z" fill="white"/>
<path d="M828.539 40H817.09V132H828.539V40Z" fill="white"/>
<path d="M845.713 40H839.988V132H845.713V40Z" fill="white"/>
<path d="M874.335 40H868.611V132H874.335V40Z" fill="white"/>
<path d="M897.233 40H891.509V132H897.233V40Z" fill="white"/>
<path d="M925.856 40H902.958V132H925.856V40Z" fill="white"/>
<path d="M943.03 40H931.581V132H943.03V40Z" fill="white"/>
<path d="M977.377 40H960.204V132H977.377V40Z" fill="white"/>
<path d="M988.826 40H983.102V132H988.826V40Z" fill="white"/>
<path d="M1006 40H994.551V132H1006V40Z" fill="white"/>
<path d="M302.076 201C300.751 201 300.088 200.337 300.088 199.012V150.937C300.088 149.637 300.751 148.987 302.076 148.987C303.376 148.987 304.026 149.637 304.026 150.937V170.775C305.151 169.05 306.751 167.737 308.826 166.837C310.926 165.937 313.626 165.487 316.926 165.487H319.776C324.451 165.487 327.863 166.575 330.013 168.75C332.188 170.925 333.276 174.35 333.276 179.025V187.462C333.276 192.137 332.188 195.562 330.013 197.737C327.863 199.912 324.451 201 319.776 201H316.926C313.626 201 310.926 200.562 308.826 199.687C306.751 198.787 305.151 197.462 304.026 195.712V199.012C304.026 200.337 303.376 201 302.076 201ZM316.926 197.062H319.776C323.351 197.062 325.838 196.362 327.238 194.962C328.638 193.537 329.338 191.037 329.338 187.462V179.025C329.338 175.45 328.626 172.962 327.201 171.562C325.801 170.137 323.326 169.425 319.776 169.425H316.926C313.026 169.425 309.901 170.037 307.551 171.262C305.201 172.487 304.026 174.35 304.026 176.85V189.787C304.076 192.212 305.276 194.037 307.626 195.262C309.976 196.462 313.076 197.062 316.926 197.062ZM356.617 201C353.067 201 350.454 200.175 348.779 198.525C347.129 196.875 346.304 194.287 346.304 190.762V150.937C346.304 149.637 346.967 148.987 348.292 148.987C349.592 148.987 350.242 149.637 350.242 150.937V190.762C350.242 193.187 350.692 194.85 351.592 195.75C352.492 196.625 354.154 197.062 356.579 197.062C357.929 197.062 358.604 197.712 358.604 199.012C358.629 200.337 357.967 201 356.617 201ZM379.19 201C374.515 201 371.09 199.925 368.915 197.775C366.74 195.6 365.653 192.187 365.653 187.537V179.062C365.653 174.337 366.74 170.9 368.915 168.75C371.09 166.575 374.515 165.512 379.19 165.562H385.34C390.015 165.562 393.428 166.65 395.578 168.825C397.753 170.975 398.84 174.387 398.84 179.062V187.462C398.84 192.137 397.753 195.562 395.578 197.737C393.428 199.912 390.015 201 385.34 201H379.19ZM369.59 187.537C369.59 191.062 370.29 193.537 371.69 194.962C373.115 196.362 375.615 197.062 379.19 197.062H385.34C388.915 197.062 391.403 196.362 392.803 194.962C394.203 193.537 394.903 191.037 394.903 187.462V179.062C394.903 175.487 394.203 173 392.803 171.6C391.403 170.2 388.915 169.5 385.34 169.5H379.19C376.79 169.475 374.89 169.762 373.49 170.362C372.09 170.962 371.09 171.962 370.49 173.362C369.89 174.762 369.59 176.662 369.59 179.062V187.537ZM420.481 216C417.531 216 415.281 215.388 413.731 214.163C412.181 212.963 411.268 211.063 410.993 208.463C410.918 207.813 411.056 207.3 411.406 206.925C411.756 206.55 412.243 206.363 412.868 206.363C413.493 206.363 413.968 206.525 414.293 206.85C414.618 207.175 414.831 207.663 414.931 208.313C415.106 209.763 415.618 210.75 416.468 211.275C417.318 211.8 418.656 212.063 420.481 212.063H434.431C436.631 212.063 438.118 211.663 438.893 210.863C439.693 210.063 440.093 208.563 440.093 206.363V195.637C438.943 197.387 437.318 198.725 435.218 199.65C433.118 200.55 430.456 201 427.231 201H424.381C419.706 201 416.281 199.925 414.106 197.775C411.931 195.6 410.843 192.187 410.843 187.537V179.062C410.843 174.337 411.918 170.912 414.068 168.787C416.243 166.637 419.681 165.562 424.381 165.562H430.531C432.981 165.562 434.968 165.887 436.493 166.537C438.018 167.187 439.218 168.2 440.093 169.575V167.512C440.093 166.212 440.756 165.562 442.081 165.562C443.381 165.562 444.031 166.212 444.031 167.512V206.363C444.031 209.663 443.256 212.088 441.706 213.638C440.156 215.213 437.731 216 434.431 216H420.481ZM424.381 197.062H427.231C431.131 197.062 434.243 196.45 436.568 195.225C438.918 194 440.093 192.137 440.093 189.637V177.112C440.093 174.287 439.306 172.312 437.731 171.187C436.156 170.062 433.756 169.5 430.531 169.5H424.381C420.806 169.5 418.306 170.2 416.881 171.6C415.481 172.975 414.781 175.462 414.781 179.062V187.537C414.781 191.062 415.481 193.537 416.881 194.962C418.306 196.362 420.806 197.062 424.381 197.062ZM458.087 201C456.637 201 455.912 200.262 455.912 198.787V197.362C455.912 195.937 456.637 195.225 458.087 195.225H459.475C460.9 195.225 461.612 195.937 461.612 197.362V198.787C461.612 200.262 460.9 201 459.475 201H458.087ZM503.887 165.562C505.212 165.562 505.874 166.212 505.874 167.512V199.012C505.874 200.337 505.212 201 503.887 201C502.587 201 501.937 200.337 501.937 199.012V195.45C499.562 199.15 495.262 201 489.037 201H486.937C482.262 201 478.837 199.912 476.662 197.737C474.512 195.562 473.437 192.137 473.437 187.462V167.512C473.437 166.212 474.087 165.562 475.387 165.562C476.712 165.562 477.374 166.212 477.374 167.512V187.462C477.374 191.037 478.074 193.537 479.474 194.962C480.899 196.362 483.387 197.062 486.937 197.062H489.037C492.912 197.062 495.962 196.437 498.187 195.187C500.412 193.937 501.662 192.025 501.937 189.45V167.512C501.937 166.212 502.587 165.562 503.887 165.562ZM522.813 184.8V187.537C522.813 191.062 523.513 193.537 524.913 194.962C526.338 196.362 528.838 197.062 532.413 197.062H538.563C541.713 197.062 544 196.662 545.425 195.862C546.875 195.037 547.738 193.625 548.013 191.625C548.113 191 548.313 190.525 548.613 190.2C548.938 189.875 549.425 189.712 550.075 189.712C550.725 189.712 551.213 189.9 551.538 190.275C551.888 190.625 552.025 191.125 551.95 191.775C551.625 194.925 550.363 197.25 548.163 198.75C545.963 200.25 542.763 201 538.563 201H532.413C527.738 201 524.313 199.925 522.138 197.775C519.963 195.6 518.875 192.187 518.875 187.537V179.062C518.875 174.337 519.963 170.9 522.138 168.75C524.313 166.575 527.738 165.512 532.413 165.562H538.563C543.238 165.562 546.65 166.65 548.8 168.825C550.975 170.975 552.063 174.387 552.063 179.062V182.812C552.063 184.137 551.413 184.8 550.113 184.8H522.813ZM532.413 169.5C528.838 169.45 526.338 170.137 524.913 171.562C523.513 172.962 522.813 175.462 522.813 179.062V180.862H548.125V179.062C548.125 175.487 547.425 173 546.025 171.6C544.625 170.2 542.138 169.5 538.563 169.5H532.413ZM563.145 182.587C562.645 182.587 562.208 182.412 561.833 182.063C561.483 181.687 561.308 181.25 561.308 180.75C561.308 180.225 561.483 179.787 561.833 179.437C562.208 179.087 562.645 178.912 563.145 178.912H583.845C584.37 178.912 584.808 179.087 585.158 179.437C585.508 179.787 585.683 180.225 585.683 180.75C585.683 181.25 585.508 181.687 585.158 182.063C584.808 182.412 584.37 182.587 583.845 182.587H563.145ZM607.109 216C603.834 216 601.409 215.213 599.834 213.638C598.284 212.063 597.509 209.613 597.509 206.288C597.509 204.988 598.159 204.338 599.459 204.338C600.784 204.338 601.446 204.988 601.446 206.288C601.446 208.538 601.846 210.063 602.646 210.863C603.446 211.663 604.934 212.063 607.109 212.063H620.084C622.284 212.063 623.784 211.663 624.584 210.863C625.384 210.063 625.784 208.538 625.784 206.288V195.975C624.359 197.85 622.571 199.162 620.421 199.912C618.271 200.662 615.759 201.038 612.884 201.038H610.784C606.184 201.038 602.821 199.975 600.696 197.85C598.571 195.725 597.509 192.387 597.509 187.837V167.475C597.509 166.15 598.159 165.487 599.459 165.487C600.784 165.487 601.446 166.15 601.446 167.475V187.837C601.446 191.312 602.121 193.725 603.471 195.075C604.846 196.425 607.284 197.1 610.784 197.1H612.884C617.259 197.1 620.496 196.337 622.596 194.812C624.721 193.262 625.784 190.937 625.784 187.837V167.475C625.784 166.15 626.434 165.487 627.734 165.487C629.059 165.487 629.721 166.15 629.721 167.475V206.288C629.721 209.613 628.934 212.063 627.359 213.638C625.809 215.213 623.384 216 620.084 216H607.109ZM644.416 201C642.966 201 642.241 200.262 642.241 198.787V197.362C642.241 195.937 642.966 195.225 644.416 195.225H645.803C647.228 195.225 647.941 195.937 647.941 197.362V198.787C647.941 200.262 647.228 201 645.803 201H644.416ZM700.152 165.487C704.177 165.487 707.052 166.512 708.777 168.562C710.527 170.612 711.402 174 711.402 178.725V199.087C711.402 200.387 710.752 201.038 709.452 201.038C708.127 201.038 707.465 200.387 707.465 199.087V178.725C707.465 175.425 706.902 173.05 705.777 171.6C704.652 170.15 702.777 169.425 700.152 169.425H697.04C693.765 169.425 691.415 170.15 689.99 171.6C688.59 173.05 687.89 175.425 687.89 178.725V199.087C687.89 200.387 687.24 201.038 685.94 201.038C684.615 201.038 683.952 200.387 683.952 199.087V178.725C683.952 175.425 683.39 173.05 682.265 171.6C681.14 170.15 679.265 169.425 676.64 169.425H673.527C670.252 169.425 667.902 170.15 666.477 171.6C665.077 173.05 664.377 175.425 664.377 178.725V199.087C664.377 200.387 663.727 201.038 662.427 201.038C661.102 201.038 660.44 200.387 660.44 199.087V167.512C660.44 166.212 661.102 165.562 662.427 165.562C663.727 165.562 664.377 166.212 664.377 167.512V170.437C665.477 168.662 666.777 167.4 668.277 166.65C669.802 165.875 671.727 165.487 674.052 165.487H676.64C679.265 165.487 681.365 165.95 682.94 166.875C684.54 167.775 685.802 169.262 686.727 171.337C687.827 169.262 689.177 167.775 690.777 166.875C692.377 165.95 694.465 165.487 697.04 165.487H700.152ZM727.671 184.8V187.537C727.671 191.062 728.371 193.537 729.771 194.962C731.196 196.362 733.696 197.062 737.271 197.062H743.421C746.571 197.062 748.859 196.662 750.284 195.862C751.734 195.037 752.596 193.625 752.871 191.625C752.971 191 753.171 190.525 753.471 190.2C753.796 189.875 754.284 189.712 754.934 189.712C755.584 189.712 756.071 189.9 756.396 190.275C756.746 190.625 756.884 191.125 756.809 191.775C756.484 194.925 755.221 197.25 753.021 198.75C750.821 200.25 747.621 201 743.421 201H737.271C732.596 201 729.171 199.925 726.996 197.775C724.821 195.6 723.734 192.187 723.734 187.537V179.062C723.734 174.337 724.821 170.9 726.996 168.75C729.171 166.575 732.596 165.512 737.271 165.562H743.421C748.096 165.562 751.509 166.65 753.659 168.825C755.834 170.975 756.921 174.387 756.921 179.062V182.812C756.921 184.137 756.271 184.8 754.971 184.8H727.671ZM737.271 169.5C733.696 169.45 731.196 170.137 729.771 171.562C728.371 172.962 727.671 175.462 727.671 179.062V180.862H752.984V179.062C752.984 175.487 752.284 173 750.884 171.6C749.484 170.2 746.996 169.5 743.421 169.5H737.271Z" fill="white"/>
</svg>
