<svg width="200" height="200" viewBox="0 0 200 200" fill="none" xmlns="http://www.w3.org/2000/svg">
<path d="M47.1111 96.8889L72 75.1111L121.778 78.2222L124.889 128L103.111 152.889C103.111 152.889 103.114 134.225 84.4444 115.556C65.7747 96.8858 47.1111 96.8889 47.1111 96.8889Z" fill="#A0041E"/>
<path d="M47.0271 152.889C47.0271 152.889 46.9151 128.065 56.3138 118.667C65.7124 109.268 90.6667 109.915 90.6667 109.915C90.6667 109.915 90.6635 134.222 81.3302 143.556C71.9969 152.889 47.0271 152.889 47.0271 152.889V152.889Z" fill="#FFAC33"/>
<path d="M71.9969 140.444C78.8698 140.444 84.4413 134.873 84.4413 128C84.4413 121.127 78.8698 115.556 71.9969 115.556C65.124 115.556 59.5524 121.127 59.5524 128C59.5524 134.873 65.124 140.444 71.9969 140.444Z" fill="#FFCC4D"/>
<path d="M155.997 44C155.997 44 124.886 44 87.5524 75.1111C68.8858 90.6667 68.8858 118.667 75.108 124.889C81.3302 131.111 109.33 131.111 124.886 112.444C155.997 75.1111 155.997 44 155.997 44Z" fill="#55ACEE"/>
<path d="M127.997 59.5556C122.948 59.5556 118.623 62.5764 116.669 66.8978C118.231 66.1916 119.952 65.7778 121.775 65.7778C128.647 65.7778 134.219 71.3498 134.219 78.2222C134.219 80.0453 133.805 81.7658 133.102 83.3244C137.424 81.3738 140.441 77.0493 140.441 72C140.441 65.1276 134.869 59.5556 127.997 59.5556V59.5556Z" fill="black"/>
<path d="M68.8889 131.111C68.8889 131.111 68.8889 118.667 72 115.556C75.1111 112.444 112.448 81.3364 115.556 84.4444C118.664 87.5524 87.5524 124.889 84.4413 128C81.3302 131.111 68.8889 131.111 68.8889 131.111Z" fill="#A0041E"/>
</svg>
