<svg width="200" height="200" viewBox="0 0 200 200" fill="none" xmlns="http://www.w3.org/2000/svg">
<path d="M42 138.694C42 146.365 48.2187 152.583 55.8889 152.583H139.222C146.892 152.583 153.111 146.365 153.111 138.694V79.6667C153.111 71.9965 146.892 65.7778 139.222 65.7778H107.972C95.6042 65.7778 97.5556 48.4167 78.6736 48.4167H55.8889C48.2187 48.4167 42 54.6354 42 62.3056V138.694Z" fill="#226699"/>
<path d="M146.167 72.7222H123.382C104.5 72.7222 106.451 90.0833 94.0833 90.0833H62.8333C55.1632 90.0833 48.9444 96.3021 48.9444 103.972V138.694C48.9444 140.615 47.3889 142.167 45.4722 142.167C43.5556 142.167 42 140.615 42 138.694C42 146.365 48.2187 152.583 55.8889 152.583H146.167C153.837 152.583 160.056 146.365 160.056 138.694V86.6111C160.056 78.941 153.837 72.7222 146.167 72.7222Z" fill="#55ACEE"/>
</svg>
